<svg xmlns="http://www.w3.org/2000/svg" id="Capa_1" viewBox="0 0 578.0036 228.095"><defs><style>.cls-1{fill:#0d6d7c;}.cls-2{fill:#0c6d7b;}.cls-3{fill:#30373a;}.cls-4{fill:#30383a;}</style></defs><g><path class="cls-3" d="M104.4614,139.5947c-6.0937-2.3441-11.0328-5.9981-14.335-10.2388-1.6561-2.1226-2.9145-4.3881-3.7649-6.7592-.849-2.374-1.2985-4.8544-1.3003-7.4929,.0012-2.3536,.36-4.8407,1.1853-7.4976,2.0215-6.4867,6.1024-11.622,11.247-14.9957,4.5529-2.9794,5.8286-9.0854,2.8493-13.6383-2.9793-4.5529-9.0854-5.8286-13.6383-2.8493-8.861,5.7909-15.8746,14.6969-19.2724,25.6299-1.391,4.4667-2.076,8.9622-2.0748,13.3509-.0018,4.9211,.8611,9.6985,2.4561,14.1421,2.392,6.6741,6.4046,12.5752,11.4839,17.4215,5.0845,4.8512,11.2388,8.6765,18.0803,11.3138,5.0772,1.9562,10.7789-.574,12.7351-5.6513,1.9562-5.0773-.574-10.7789-5.6512-12.7351h0Z"></path><path class="cls-2" d="M179.8125,66.1731c-1.7819,6.2311-5.0761,12.4216-9.4228,18.0572-4.3378,5.6355-9.7148,10.6983-15.4281,14.6993l-8.0673,5.6551,11.3103,16.1345,8.0673-5.6551c7.3163-5.1329,14.0827-11.4897,19.7258-18.8074,5.6341-7.3177,10.1581-15.614,12.7552-24.6516l2.716-9.4702-18.9403-5.4319-2.716,9.4702h0Z"></path><path class="cls-2" d="M172.1852,81.8586c-4.8476,7.6415-11.6023,14.3076-19.1987,18.9399-7.6051,4.6479-15.9654,7.2483-24.1798,7.2426-5.8016-.0077-11.5677-1.2552-17.3199-4.1186-4.8683-2.4303-10.7848-.4538-13.215,4.4144-2.4302,4.8682-.4538,10.7847,4.4144,13.215,8.4853,4.2439,17.4215,6.2008,26.1205,6.193,12.3722-.0057,24.1918-3.864,34.4533-10.1328,10.2702-6.2845,19.0688-14.9934,25.5548-25.1846,2.9185-4.5922,1.5618-10.6808-3.0303-13.5993-4.5922-2.9185-10.6808-1.5618-13.5992,3.0304h0Z"></path><path class="cls-3" d="M39.9977,55.5831c8.0334-10.1604,18.1185-18.6322,29.6127-24.7815,11.497-6.1496,24.3919-9.983,38.1245-10.8899,2.0852-.1376,4.1893-.2075,6.3125-.2075,5.4411,0,9.8519-4.4109,9.8519-9.8519S119.4884,.0004,114.0474,.0004c-2.5554,0-5.0928,.084-7.6098,.2502-16.5781,1.0921-32.2233,5.739-46.1228,13.1776-13.9023,7.4389-26.07,17.6632-35.7731,29.9337-3.3748,4.268-2.6508,10.4638,1.6173,13.8386,4.268,3.3748,10.4638,2.6507,13.8386-1.6173h0Z"></path><path class="cls-3" d="M114.0474,208.3912c-20.5704-.0044-39.5179-6.5531-55.0223-17.6971-15.4971-11.1451-27.481-26.8841-33.95-45.1833-3.4768-9.834-5.3703-20.407-5.3711-31.4631,.0012-12.3041,2.3456-24.0124,6.609-34.7646,2.0061-5.0578-.4678-10.7842-5.5255-12.7903-5.0578-2.0061-10.7842,.4677-12.7903,5.5255C2.8346,85.0301-.0012,99.2314,0,114.0477c-.0009,13.3125,2.2881,26.1298,6.4985,38.0326,7.8395,22.1614,22.3052,41.1463,41.021,54.6097,18.7085,13.4645,41.7368,21.4094,66.5278,21.405,5.441,0,9.8519-4.4109,9.8519-9.8519s-4.4109-9.8519-9.8519-9.8519h0Z"></path><path class="cls-3" d="M67.6772,149.6797c-5.1423-7.1647-8.8282-15.3478-10.681-24.176-.8875-4.2309-1.3547-8.6139-1.3549-13.117,.0041-12.238,3.4397-23.6148,9.4534-33.4104,6.0135-9.7881,14.6227-17.9553,24.9076-23.5607,4.7772-2.6045,6.5386-8.5885,3.9342-13.3658-2.6045-4.7772-8.5885-6.5387-13.3657-3.9342-13.2799,7.2413-24.4193,17.7836-32.2632,30.5439-7.8437,12.7527-12.3743,27.7629-12.3702,43.7272-.0002,5.8682,.6102,11.6136,1.7747,17.163,2.4299,11.5837,7.2696,22.3045,13.9585,31.6207,3.173,4.42,9.3285,5.431,13.7486,2.2579,4.4201-3.1731,5.431-9.3286,2.258-13.7486h0Z"></path><path class="cls-3" d="M157.9784,173.8644c-9.7147,5.3112-20.9015,8.3449-32.8915,8.3471-11.7803-.0021-22.7856-2.931-32.3807-8.07-4.7959-2.5701-10.7672-.7657-13.3372,4.0301-2.5701,4.7958-.7657,10.7672,4.0302,13.3373,12.3822,6.6384,26.6212,10.4085,41.6878,10.4065,15.3351,.0021,29.8117-3.9036,42.3479-10.7644,4.7735-2.6113,6.5263-8.5979,3.9151-13.3714-2.6113-4.7736-8.5979-6.5264-13.3714-3.9151h0Z"></path><path class="cls-3" d="M151.8677,52.8331c-.2501,2.8818-1.0953,5.5867-2.4508,8.1045-2.0245,3.7683-5.2531,7.0854-9.1053,9.3972-3.8486,2.3207-8.2541,3.6008-12.4969,3.5941-2.5244-.0017-4.9987-.4356-7.4036-1.3613-5.0769-1.9574-10.7792,.5715-12.7365,5.6484-1.9573,5.0769,.5716,10.7792,5.6485,12.7366,4.7499,1.8327,9.6756,2.6819,14.4917,2.6802,5.4163-.0009,10.6952-1.0602,15.598-2.9562,7.3525-2.8516,13.9017-7.5687,18.9095-13.7374,4.9969-6.1563,8.4429-13.8665,9.1767-22.4144,.4671-5.421-3.5488-10.1943-8.9697-10.6614-5.421-.4672-10.1943,3.5487-10.6614,8.9697h0Z"></path><path class="cls-3" d="M151.8748,52.6915c-.1549,1.8505-.4511,3.4535-.8979,4.8458-.4513,1.3968-1.0328,2.5906-1.8825,3.7754l-5.761,7.9921,15.9841,11.5219,5.761-7.992c2.1403-2.9634,3.6597-6.143,4.6627-9.2852,1.0075-3.1469,1.5192-6.2485,1.7684-9.2086l.8246-9.8174-19.6348-1.6492-.8246,9.8174h0Z"></path><path class="cls-3" d="M169.5183,140.2496c-11.7986,5.9327-23.6888,8.9508-34.6427,8.9447-3.3612,0-6.6391-.2812-9.8189-.8438-5.3579-.9482-10.4699,2.6266-11.4181,7.9845-.9481,5.3578,2.6266,10.4699,7.9845,11.4181,4.3606,.7717,8.7922,1.1452,13.2524,1.1451,14.5571-.0061,29.3689-3.9504,43.4899-11.0426,4.8617-2.4431,6.8224-8.3648,4.3793-13.2266-2.4431-4.8617-8.3648-6.8224-13.2265-4.3793h0Z"></path><path class="cls-3" d="M169.5182,140.2496c-5.6882,2.8596-11.2822,5.1466-16.7008,6.6984-5.4222,1.554-10.6558,2.3754-15.7149,2.3751-1.145,0-2.2825-.042-3.4137-.1272l-9.8241-.7401-1.4803,19.6483,9.8241,.7401c1.6349,.1231,3.267,.1829,4.894,.1828,7.1972-.0003,14.2679-1.167,21.1437-3.1377,6.8793-1.9729,13.5769-4.7471,20.1194-8.0338l8.8029-4.4237-8.8473-17.6059-8.8029,4.4237h0Z"></path><path class="cls-3" d="M148.3987,163.5501l.0488-.0818c-1.0123,.5807-2.0252,1.1621-3.0382,1.7428l.1051-.011c.958-.0996,1.784-.3257,2.4884-1.0308,.6103-.6103,1.07-1.6115,1.0301-2.4877-.0777-1.7428-1.5579-3.7227-3.5186-3.5186-1.3648,.1423-2.4596,.6164-3.1921,1.8356-.949,1.5785-.4034,3.9336,1.2624,4.814,1.7036,.9003,3.801,.4233,4.814-1.2624Z"></path><rect class="cls-4" x="186.3933" y="123.9233" width="12" height="12"></rect><rect class="cls-4" x="209.3933" y="121.9233" width="8" height="7"></rect><rect class="cls-4" x="209.3933" y="99.9233" width="10" height="10"></rect><rect class="cls-4" x="206.3933" y="79.9233" width="6" height="6"></rect><rect class="cls-4" x="171.3933" y="24.9233" width="10" height="10"></rect><rect class="cls-4" x="149.3933" y="17.9233" width="7" height="7"></rect><rect class="cls-4" x="167.3933" y="4.9233" width="7" height="7"></rect><rect class="cls-4" x="184.3933" y="8.9233" width="5" height="5"></rect><rect class="cls-2" x="184.3933" y="42.9233" width="6" height="6"></rect><rect class="cls-2" x="196.3933" y="45.9233" width="10" height="10"></rect><rect class="cls-2" x="218.3933" y="44.9233" width="7" height="7"></rect><rect class="cls-2" x="202.3933" y="22.9233" width="12" height="12"></rect></g><g><path class="cls-1" d="M253.9372,37.1113l-1.6367,5.7065h-9.2007l9.9526-33.1763h13.4478l10.0854,33.1763h-9.0239l-1.7251-5.7065h-11.8994Zm6.0161-20.8345h-.0884l-4.0254,14.3765h8.2275l-4.1138-14.3765Z"></path><path class="cls-3" d="M283.8835,32.2456v1.5483c0,3.8042,1.6367,4.0698,7.52,4.0698,5.7949,0,6.5913-1.062,6.5913-4.9102,0-4.7334-2.5215-4.1143-7.4761-4.3794-7.166-.4424-12.8281-.1772-12.8281-9.8203,0-9.1123,5.7505-9.3779,13.7129-9.3779,6.7681,0,12.2974,.2212,12.2974,8.9355v1.0615h-6.3696v-1.0615c0-3.583-1.46-3.7158-5.9277-3.7158-6.3257,0-7.3433,.6196-7.3433,4.1582,0,4.0698,.8408,4.2021,7.2988,4.6006,10.2188,.6191,13.0054,1.1499,13.0054,9.5991,0,9.3335-4.4233,10.1299-12.9609,10.1299-7.3433,0-13.8896,.2212-13.8896-9.2896v-1.5483h6.3696Z"></path><path class="cls-3" d="M335.7263,21.4966v8.9355c0,10.6162-4.1143,12.6514-14.1558,12.6514-10.2622,0-14.0225-1.7695-14.0225-12.6514v-8.9355c0-10.3071,3.4946-12.1206,14.0225-12.1206,9.5552,0,14.1558,1.46,14.1558,12.1206Zm-21.8081,0v8.9355c0,6.5908,1.2827,7.2104,7.6523,7.2104,5.7954,0,7.7856-.7964,7.7856-7.2104v-8.9355c.1328-6.2373-2.123-6.6797-7.7856-6.6797-6.8564,0-7.52,1.4155-7.6523,6.6797Z"></path><path class="cls-3" d="M360.0544,20.7446v-1.814c0-3.8481-1.5039-4.1138-7.0781-4.1138-6.4141,0-7.5195,1.0615-7.5195,7.5645v7.3428c.0439,6.6353,.8398,7.9185,7.5195,7.9185,5.1318,0,7.4316-.1772,7.4316-4.9102v-1.814h6.3701v2.1675c.1328,9.9976-5.5742,9.6436-13.8018,9.9976-11.6777,.4424-13.7568-3.4062-13.8896-13.0938v-7.6084c0-10.6167,4.1143-13.0054,13.8896-13.0054,8.2725,0,13.0049,.0444,13.4473,9.5547v1.814h-6.3691Z"></path><path class="cls-3" d="M377.5261,42.8179h-6.3691V9.6416h6.3691V42.8179Z"></path><path class="cls-3" d="M388.9821,36.5366l-2.0791,6.2812h-6.5908l11.0146-33.1763h9.3779l11.2354,33.1763h-6.458l-2.168-6.2812h-14.332Zm7.2109-22.0293h-.0889l-5.6621,17.2075h11.457l-5.7061-17.2075Z"></path><path class="cls-3" d="M434.4118,20.7446v-1.814c0-3.8481-1.5039-4.1138-7.0781-4.1138-6.4141,0-7.5195,1.0615-7.5195,7.5645v7.3428c.0439,6.6353,.8398,7.9185,7.5195,7.9185,5.1318,0,7.4316-.1772,7.4316-4.9102v-1.814h6.3701v2.1675c.1328,9.9976-5.5742,9.6436-13.8018,9.9976-11.6777,.4424-13.7568-3.4062-13.8896-13.0938v-7.6084c0-10.6167,4.1143-13.0054,13.8896-13.0054,8.2725,0,13.0049,.0444,13.4473,9.5547v1.814h-6.3691Z"></path><path class="cls-3" d="M451.8835,42.8179h-6.3691V9.6416h6.3691V42.8179Z"></path><path class="cls-3" d="M484.7058,21.4966v8.9355c0,10.6162-4.1143,12.6514-14.1553,12.6514-10.2627,0-14.0225-1.7695-14.0225-12.6514v-8.9355c0-10.3071,3.4941-12.1206,14.0225-12.1206,9.5547,0,14.1553,1.46,14.1553,12.1206Zm-21.8086,0v8.9355c0,6.5908,1.2832,7.2104,7.6533,7.2104,5.7949,0,7.7852-.7964,7.7852-7.2104v-8.9355c.1328-6.2373-2.123-6.6797-7.7852-6.6797-6.8564,0-7.5205,1.4155-7.6533,6.6797Zm12.6074-17.8711l-8.582,3.8042-1.1943-2.3003L473.5144-.002l1.9902,3.6274Z"></path><path class="cls-3" d="M513.7224,9.6416h6.3701V42.8179h-10.5723l-14.1113-27.7354h-.2207l.5303,27.7354h-6.3691V9.6416h10.5273l14.2002,27.7354h.1768l-.5312-27.7354Z"></path><path class="cls-1" d="M255.3088,68.7764h14.1553v6.1489h-14.1553v6.4585h15.3936v7.2544h-24.2407V55.4619h23.9312v7.2544h-15.084v6.0601Z"></path><path class="cls-3" d="M281.4509,78.0659v1.5483c0,3.8042,1.6367,4.0698,7.52,4.0698,5.7949,0,6.5913-1.062,6.5913-4.9102,0-4.7334-2.5215-4.1143-7.4761-4.3794-7.166-.4424-12.8281-.1772-12.8281-9.8203,0-9.1123,5.7505-9.3779,13.7129-9.3779,6.7681,0,12.2974,.2212,12.2974,8.9355v1.0615h-6.3696v-1.0615c0-3.583-1.46-3.7158-5.9277-3.7158-6.3257,0-7.3433,.6196-7.3433,4.1582,0,4.0698,.8408,4.2021,7.2988,4.6006,10.2188,.6191,13.0054,1.1499,13.0054,9.5991,0,9.3335-4.4233,10.1299-12.9609,10.1299-7.3433,0-13.8896,.2212-13.8896-9.2896v-1.5483h6.3696Z"></path><path class="cls-3" d="M305.8674,55.4619h14.686c8.8916,0,11.8105,2.123,11.8105,11.4126,0,9.3779-3.1406,11.0146-11.8105,11.0146h-8.3159v10.749h-6.3701V55.4619Zm14.686,16.9863c4.5566-.0884,5.4409-.9292,5.4409-5.5737,0-4.689-.6636-6.0161-5.4409-5.9717h-8.3159v11.5454h8.3159Z"></path><path class="cls-3" d="M340.281,82.3569l-2.0791,6.2812h-6.5908l11.0146-33.1763h9.3779l11.2354,33.1763h-6.458l-2.168-6.2812h-14.332Zm7.2109-22.0293h-.0889l-5.6621,17.2075h11.457l-5.7061-17.2075Z"></path><path class="cls-3" d="M390.3991,55.4619h6.3701v33.1763h-10.5723l-14.1113-27.7354h-.2207l.5303,27.7354h-6.3691V55.4619h10.5273l14.2002,27.7354h.1768l-.5312-27.7354Zm-.4424-6.4141c-1.1504,2.0347-2.6094,3.8481-5.1309,3.8481-2.5654,0-4.9541-2.4326-6.7686-2.4326-1.2822,0-1.8574,.8403-2.3887,1.8579l-2.8311-1.5483c1.1064-1.9907,2.6104-3.7603,5.0869-3.7603,2.3447,0,4.999,2.5215,6.8125,2.5215,1.1504,0,1.9463-1.0615,2.4775-1.9907l2.7422,1.5044Z"></path><path class="cls-3" d="M429.5915,67.3169v8.9355c0,10.6162-4.1143,12.6514-14.1553,12.6514-10.2627,0-14.0225-1.7695-14.0225-12.6514v-8.9355c0-10.3071,3.4941-12.1206,14.0225-12.1206,9.5547,0,14.1553,1.46,14.1553,12.1206Zm-21.8086,0v8.9355c0,6.5908,1.2832,7.2104,7.6533,7.2104,5.7949,0,7.7852-.7964,7.7852-7.2104v-8.9355c.1328-6.2373-2.123-6.6797-7.7852-6.6797-6.8564,0-7.5205,1.4155-7.6533,6.6797Z"></path><path class="cls-3" d="M440.6042,83.1973h15.4824v5.4409h-21.8516V55.4619h6.3691v27.7354Z"></path><path class="cls-3" d="M464.8445,82.3569l-2.0791,6.2812h-6.5908l11.0146-33.1763h9.3779l11.2354,33.1763h-6.458l-2.168-6.2812h-14.332Zm7.2109-22.0293h-.0889l-5.6621,17.2075h11.457l-5.7061-17.2075Z"></path><path class="cls-3" d="M505.9812,55.4619h15.8369c9.1562,0,13.0488,3.3174,13.0488,12.3413v7.8296c0,6.9009-1.9463,13.0054-11.9873,13.0054h-16.8984V55.4619Zm16.8984,27.7354c4.291,0,5.6182-3.8486,5.6182-7.5645v-7.8296c0-5.5293-1.8145-6.9004-6.6797-6.9004h-9.4668v22.2944h10.5283Z"></path><path class="cls-3" d="M545.4382,69.1748h15.5273v5.2197h-15.5273v8.8027h16.5v5.4409h-22.8691V55.4619h22.7363v5.4409h-16.3672v8.272Z"></path><path class="cls-1" d="M255.2204,134.4585h-8.8472v-33.1763h8.8472v33.1763Z"></path><path class="cls-3" d="M283.0876,134.4585h-5.7061l-10.5283-27.8237h-.1323l.5308,27.8237h-6.3701v-33.1763h10.2183l9.0239,24.6387h.1772l8.8472-24.6387h10.4395v33.1763h-6.3701l.5308-27.9565h-.2212l-10.4395,27.9565Z"></path><path class="cls-3" d="M311.0432,128.1772l-2.0791,6.2812h-6.5913l11.0146-33.1763h9.3779l11.2354,33.1763h-6.458l-2.1675-6.2812h-14.332Zm7.21-22.0293h-.0884l-5.6621,17.2075h11.457l-5.7065-17.2075Z"></path><path class="cls-3" d="M364.2575,116.853v6.0156c0,9.8203-2.4775,11.8555-14.2881,11.8555-10.6162,0-14.5977-1.8579-14.5977-13.0938v-7.6084c0-11.0591,4.335-13.0054,14.5977-13.0054,8.0947,0,14.4648-.3979,14.2441,10.2627h-6.3262c0-4.8657-2.3887-4.8218-7.918-4.8218-7.4316,0-8.1396,1.1504-8.2275,7.5645v7.6084c.0879,6.9448,1.1504,7.6528,8.2275,7.6528,6.0605,0,7.918-.1328,7.918-6.4146v-1.1943h-8.3604v-4.8213h14.7305Z"></path><path class="cls-3" d="M374.8718,114.9951h15.5273v5.2197h-15.5273v8.8027h16.5v5.4409h-22.8691v-33.1763h22.7363v5.4409h-16.3672v8.272Z"></path><path class="cls-3" d="M420.6989,101.2822h6.3701v33.1763h-10.5723l-14.1113-27.7354h-.2207l.5303,27.7354h-6.3691v-33.1763h10.5273l14.2002,27.7354h.1768l-.5312-27.7354Z"></path><path class="cls-1" d="M274.3742,167.7153v.9731c0,3.6274-.0444,6.9009-3.0522,9.4224-3.0083,2.4771-6.6797,2.4331-10.5283,2.4331-9.0239,0-15.6147-.4424-15.6147-12.563v-8.5815c0-10.9702,5.8833-12.563,15.6147-12.563,9.1128,0,13.3594,.9292,13.5361,10.8818v1.2827h-9.1123v-1.2827c-.3096-2.9639-2.3887-3.1851-5.397-3.1851-5.0425,0-5.5293,1.5483-5.5293,6.2817v5.1753c0,4.9546,.2212,6.8564,5.5293,6.8564,3.6719,0,5.4409-.2651,5.4409-4.1582v-.9731h9.1128Z"></path><path class="cls-3" d="M285.1228,180.2783h-6.3701v-33.1763h6.3701v33.1763Z"></path><path class="cls-3" d="M296.8884,160.8149h15.5264v5.2197h-15.5264v8.8027h16.4995v5.4409h-22.8696v-33.1763h22.7368v5.4409h-16.3667v8.272Z"></path><path class="cls-3" d="M342.7146,147.1021h6.3701v33.1763h-10.5723l-14.1108-27.7354h-.2212l.5308,27.7354h-6.3701v-33.1763h10.5278l14.2002,27.7354h.1768l-.5312-27.7354Z"></path><path class="cls-3" d="M368.1931,180.2783h-6.3701v-27.7354h-9.7314v-5.4409h25.833v5.4409h-9.7314v27.7354Z"></path><path class="cls-3" d="M388.9831,141.0859l-8.582,3.8042-1.1943-2.3003,7.7861-5.1313,1.9902,3.6274Zm-1.7256,39.1924h-6.3691v-33.1763h6.3691v33.1763Z"></path><path class="cls-3" d="M399.112,161.3457h14.7744v5.2197h-14.7744v13.7129h-6.3701v-33.1763h21.9404v5.4409h-15.5703v8.8027Z"></path><path class="cls-3" d="M425.2087,180.2783h-6.3691v-33.1763h6.3691v33.1763Z"></path><path class="cls-3" d="M450.7321,158.2051v-1.814c0-3.8481-1.5039-4.1138-7.0781-4.1138-6.4141,0-7.5195,1.0615-7.5195,7.5645v7.3428c.0439,6.6353,.8398,7.9185,7.5195,7.9185,5.1318,0,7.4316-.1772,7.4316-4.9102v-1.814h6.3701v2.1675c.1328,9.9976-5.5742,9.6436-13.8018,9.9976-11.6777,.4419-13.7568-3.4062-13.8896-13.0938v-7.6084c0-10.6167,4.1143-13.0054,13.8896-13.0054,8.2725,0,13.0049,.0444,13.4473,9.5547v1.814h-6.3691Z"></path><path class="cls-3" d="M467.4519,173.9971l-2.0791,6.2812h-6.5908l11.0146-33.1763h9.3779l11.2354,33.1763h-6.458l-2.168-6.2812h-14.332Zm7.2109-22.0293h-.0889l-5.6621,17.2075h11.457l-5.7061-17.2075Z"></path><path class="cls-3" d="M523.7185,167.5386v12.7397h-6.3701v-12.7397l-11.9873-20.4365h7.2539l7.874,14.1553h.1328l8.0068-14.1553h7.3428l-12.2529,20.4365Z"></path><path class="cls-1" d="M254.9104,206.6802h13.5361v7.2539h-13.5361v12.165h-8.8467v-33.1763h23.5332v7.2544h-14.6865v6.5029Z"></path><path class="cls-3" d="M300.7815,204.7778v8.9355c0,10.6162-4.1138,12.6514-14.1553,12.6514-10.2622,0-14.0225-1.7695-14.0225-12.6514v-8.9355c0-10.3071,3.4946-12.1206,14.0225-12.1206,9.5552,0,14.1553,1.46,14.1553,12.1206Zm-21.8076,0v8.9355c0,6.5908,1.2827,7.21,7.6523,7.21,5.7949,0,7.7856-.7959,7.7856-7.21v-8.9355c.1328-6.2373-2.1235-6.6797-7.7856-6.6797-6.8564,0-7.52,1.416-7.6523,6.6797Z"></path><path class="cls-3" d="M311.5744,215.1284v10.9707h-6.3701v-33.1763h16.9424c7.2544,.1768,10.0415,2.4326,10.0415,9.9526,0,4.9102-.2656,8.4932-5.8838,9.334v.1768c4.5127,.3984,5.6182,2.8311,5.6182,7.5195v6.1934h-6.3701v-6.1934c0-2.7861-1.1499-4.7324-4.2021-4.7773h-9.7759Zm8.4048-5.4404c4.6885,0,5.8389-.9287,5.8389-5.7949,0-4.6885-.8403-5.5293-5.397-5.5293h-8.8467v11.3242h8.4048Z"></path><path class="cls-3" d="M343.2898,206.6353h15.5273v5.2197h-15.5273v8.8027h16.5v5.4414h-22.8691v-33.1763h22.7363v5.4409h-16.3672v8.2715Z"></path><path class="cls-3" d="M389.1159,192.9229h6.3701v33.1763h-10.5723l-14.1113-27.7354h-.2207l.5303,27.7354h-6.3691v-33.1763h10.5273l14.2002,27.7349h.1768l-.5312-27.7349Z"></path><path class="cls-3" d="M406.2351,215.5269v1.5479c0,3.8047,1.6367,4.0703,7.5195,4.0703,5.7949,0,6.5908-1.0615,6.5908-4.9102,0-4.7334-2.5215-4.1143-7.4756-4.3799-7.166-.4424-12.8281-.1768-12.8281-9.8203,0-9.1118,5.751-9.3774,13.7129-9.3774,6.7676,0,12.2979,.2212,12.2979,8.936v1.0615h-6.3701v-1.0615c0-3.584-1.46-3.7163-5.9277-3.7163-6.3252,0-7.3428,.6196-7.3428,4.1577,0,4.0703,.8398,4.2031,7.2988,4.6006,10.2178,.6201,13.0049,1.1504,13.0049,9.5996,0,9.333-4.4238,10.1299-12.9609,10.1299-7.3428,0-13.8896,.2207-13.8896-9.29v-1.5479h6.3701Z"></path><path class="cls-3" d="M437.0202,206.6353h15.5273v5.2197h-15.5273v8.8027h16.5v5.4414h-22.8691v-33.1763h22.7363v5.4409h-16.3672v8.2715Z"></path></g></svg>